<?xml version="1.0" encoding="UTF-8"?>
<!-- Generator: Adobe Illustrator 16.0.0, SVG Export Plug-In . SVG Version: 6.00 Build 0)  -->
<!DOCTYPE svg PUBLIC "-//W3C//DTD SVG 1.1//EN" "http://www.w3.org/Graphics/SVG/1.1/DTD/svg11.dtd">
<svg version="1.1" id="Layer_1" xmlns="http://www.w3.org/2000/svg" xmlns:xlink="http://www.w3.org/1999/xlink" x="0px" y="0px" width="500px" height="128.5px" viewBox="0 0 500 128.5" enable-background="new 0 0 500 128.5" xml:space="preserve">
<g>
	<g>
		<g>
			<g>
				<path fill="#202C5E" d="M65.681,72.938L39.795,10.044h-2.096L12.753,72.087c-2.51,6.302-4.351,8.032-8.568,8.032H2.842v3.189      h20.364V80.19h-1.344c-6.5,0-6.572-3.034-6.594-3.996c0-1.066,0.132-1.979,0.425-2.862l4.997-12.681      c0.575-1.454,0.747-1.813,1.134-1.984c0.69-0.31,2.404-0.332,4.947-0.332H48.75l5.793,14.033l0.05,0.111      c0.763,1.46,1.144,2.996,1.144,4.577c0,2.664-3.908,3.063-6.235,3.063h-1.343v3.189h27.434V80.19h-1.343      c-5.053,0-6.296-1.453-8.573-7.252H65.681z M26.771,55.294c-2.389,0-3.372-0.199-3.771-0.332      c0.133-0.492,0.332-0.968,0.536-1.432L35.074,24.98L47.5,55.294H26.766H26.771z"/>
				<path fill="#202C5E" d="M141.472,62.989c0,4.036-0.906,17.202-12.587,17.202h-11.763c-4.434,0-4.434-0.597-4.434-2.194V12.792      H96.438v3.118h1.343c4.434,0,4.434,0.553,4.434,2.195v59.898c0,1.642,0,2.194-4.434,2.194h-1.343v3.118h48.218V61.651h-3.189      v1.343L141.472,62.989z"/>
				<path fill="#202C5E" d="M213.708,62.989c0,4.036-0.906,17.202-12.587,17.202h-11.763c-4.434,0-4.434-0.552-4.434-2.194V12.792      h-16.251v3.118h1.343c4.434,0,4.434,0.597,4.434,2.195v59.898c0,1.598,0,2.194-4.434,2.194h-1.343v3.118h48.146V61.651h-3.118      v1.343L213.708,62.989z"/>
				<path fill="#202C5E" d="M291.317,72.147c-4.588,5.412-11.243,8.553-18.247,8.618c-13.913,0-21.895-11.873-21.895-32.574      c0-20.702,8.253-33.946,21.536-33.946c7.263,0,18.069,4.638,18.069,17.423v1.343h3.189V12.145h-3.189v1.343      c0,1.293,0,3.04-0.182,3.532c-0.078,0.017-0.228,0.033-0.499,0.033c-0.629,0-1.973-0.73-3.399-1.503      c-3.123-1.697-7.837-4.268-13.995-4.268c-19.579,0-32.735,14.836-32.735,36.92c0,22.083,11.503,36.633,28.617,36.633      c11.11,0,18.839-3.284,25.057-10.652l0.796-0.939l-2.189-2.189l-0.939,1.11L291.317,72.147z"/>
				<path fill="#202C5E" d="M372.818,72.944L347.004,10.05h-2.096l-24.946,62.043c-2.509,6.301-4.366,8.032-8.64,8.032h-1.344v3.189      h20.437v-3.118h-1.344c-6.5,0-6.572-3.035-6.594-3.996c0-1.066,0.132-1.979,0.426-2.863l4.974-12.62l0.029-0.077      c0.535-1.442,0.696-1.797,1.071-1.962c0.691-0.31,2.427-0.332,5.003-0.332h22.05l5.794,14.106l0.038,0.088      c0.663,1.321,1.018,2.819,1.084,4.522c0,2.664-3.952,3.063-6.308,3.063h-1.343v3.189h27.506v-3.189h-1.344      c-5.174,0-6.329-1.455-8.645-7.181H372.818z M333.975,55.294c-2.404,0-3.388-0.199-3.774-0.332      c0.12-0.509,0.276-0.923,0.475-1.283l11.542-28.7l12.487,30.314H333.975z"/>
				<path fill="#202C5E" d="M436.67,12.792h-33.023v3.118h1.343c4.434,0,4.434,0.553,4.434,2.195V77.93c0,1.642,0,2.195-4.434,2.195      h-1.343v3.189h22.022v-3.118h-1.343c-4.434,0-4.434-0.597-4.434-2.194V51.95c0-0.741,0.027-1.741,0.271-1.879      c0.542-0.315,2.466-0.315,4.163-0.315h13.134c11.42,0,19.093-7.529,19.093-18.733s-8.176-18.23-19.889-18.23H436.67z       M419.898,18.104c0-1.598,0-2.195,4.434-2.195h10.319c7.109,0,10.713,5.036,10.713,14.969c0,7.225-1.796,15.832-10.348,15.832      h-10.68c-1.697,0-3.621,0-4.174-0.31c-0.231-0.133-0.259-1.095-0.259-1.813V18.104H419.898z"/>
			</g>
			<g>
				<path fill="#202C5E" d="M106.873,113.65L106.873,113.65c-2.885-2.454-7.219-2.023-9.667,0.867      c-2.383,2.957-2.023,7.291,0.939,9.669c1.155,1.011,2.598,1.515,4.112,1.586c1.73,0.072,3.394-0.503,4.693-1.586v1.874      c-1.443,0.796-3.029,1.227-4.621,1.227c-4.472,0.216-8.226-3.245-8.441-7.65v-0.796c-0.144-4.544,3.395-8.297,7.938-8.441h0.503      c1.586,0,3.173,0.432,4.543,1.228V113.65L106.873,113.65z"/>
				<path fill="#202C5E" d="M122.965,111.986L122.965,111.986c-3.825-0.144-6.998,2.886-7.07,6.711      c-0.071,3.825,2.886,6.998,6.711,7.069c3.825,0.072,6.998-2.885,7.069-6.711v-0.215c0.216-3.609-2.598-6.711-6.207-6.854      H122.965z M122.965,110.399L122.965,110.399c4.693,0,8.44,3.825,8.44,8.441s-3.753,8.44-8.44,8.44s-8.44-3.752-8.44-8.44      c-0.144-4.473,3.465-8.297,8.01-8.441H122.965z"/>
				<polygon fill="#202C5E" points="147.718,127.071 147.718,127.071 143.246,112.351 140.72,127.071 139.057,127.071       141.947,110.688 144.18,110.688 148.658,125.336 153.13,110.688 155.44,110.688 158.326,127.071 156.596,127.071       154.069,112.351 149.592,127.071 147.718,127.071 147.718,127.071     "/>
				<polygon fill="#202C5E" points="174.71,127.071 174.71,127.071 170.232,112.351 167.706,127.071 166.048,127.071       168.934,110.688 171.244,110.688 175.716,125.336 180.193,110.688 182.504,110.688 185.39,127.071 183.731,127.071       181.205,112.351 176.728,127.071 174.71,127.071 174.71,127.071     "/>
				<path fill="#202C5E" d="M193.543,110.688h1.73v10.896c0,3.466,2.167,4.256,5.052,4.256c1.228,0,2.526-0.144,3.754-0.359v-14.792      h1.729v16.019c-1.802,0.359-3.682,0.575-5.483,0.575c-3.682,0-6.782-1.155-6.782-5.555V110.688L193.543,110.688L193.543,110.688      z"/>
				<polygon fill="#202C5E" points="227.39,124.545 227.39,124.545 227.39,110.688 229.048,110.688 229.048,127.071 227.39,127.071       217.644,113.213 217.644,127.071 215.985,127.071 215.985,110.688 217.721,110.688 227.39,124.545 227.39,124.545     "/>
				<polygon fill="#202C5E" points="240.954,127.071 240.954,127.071 239.296,127.071 239.296,110.688 240.954,110.688       240.954,127.071 240.954,127.071     "/>
				<path fill="#202C5E" d="M263.037,113.65L263.037,113.65c-2.957-2.454-7.291-2.023-9.668,0.867      c-2.454,2.957-2.022,7.291,0.939,9.669c1.156,1.011,2.671,1.586,4.186,1.586c1.657,0.072,3.322-0.503,4.621-1.586v1.874      c-1.371,0.796-2.958,1.227-4.621,1.227c-4.4,0.216-8.226-3.245-8.441-7.722v-0.725c-0.144-4.544,3.395-8.297,7.938-8.441h0.503      c1.586,0,3.173,0.432,4.543,1.228V113.65L263.037,113.65L263.037,113.65z"/>
				<path fill="#202C5E" d="M277.83,112.059L277.83,112.059l-3.466,9.021h6.854l-3.395-9.021l0,0H277.83z M273.861,122.522      L273.861,122.522l-1.73,4.543h-1.73l6.352-16.378h2.167l6.423,16.378h-1.802l-1.73-4.543h-7.938H273.861z"/>
				<polygon fill="#202C5E" points="297.536,127.071 297.536,127.071 295.801,127.071 295.801,112.201 290.389,112.201       290.389,110.688 302.948,110.688 302.948,112.201 297.536,112.201 297.536,127.071 297.536,127.071     "/>
				<polygon fill="#202C5E" points="312.902,127.071 312.902,127.071 311.173,127.071 311.173,110.688 312.902,110.688       312.902,127.071 312.902,127.071     "/>
				<path fill="#202C5E" d="M330.443,111.986L330.443,111.986c-3.825-0.144-6.999,2.886-7.07,6.711      c-0.145,3.825,2.885,6.998,6.71,7.069c3.825,0.072,6.998-2.885,7.07-6.711v-0.215c0.216-3.609-2.599-6.711-6.28-6.854H330.443z       M330.443,110.399L330.443,110.399c4.621,0,8.44,3.825,8.44,8.514c0,4.687-3.825,8.44-8.44,8.368      c-4.693,0-8.441-3.752-8.441-8.44c-0.144-4.473,3.394-8.297,7.938-8.441H330.443L330.443,110.399z"/>
				<polygon fill="#202C5E" points="359.452,124.545 359.452,124.545 359.452,110.688 361.039,110.688 361.039,127.071       359.381,127.071 349.563,113.213 349.563,127.071 347.905,127.071 347.905,110.688 349.707,110.688 359.452,124.545       359.452,124.545     "/>
				<path fill="#202C5E" d="M370.06,124.187L370.06,124.187c1.156,1.083,2.599,1.658,4.186,1.658c1.874,0,3.609-0.868,3.609-2.957      c0-1.946-1.442-2.742-3.395-3.467c-2.886-1.083-4.472-2.022-4.472-4.765s2.311-4.257,4.765-4.257c1.371,0,2.741,0.432,3.897,1.3      v1.802c-1.084-1.012-2.455-1.587-3.897-1.587c-1.587-0.215-2.957,0.94-3.102,2.454c0,0.072-0.071,0.217-0.071,0.288      c0,1.586,1.012,2.311,3.322,3.173c3.029,1.012,4.621,2.167,4.621,5.053c0,2.885-2.311,4.399-5.268,4.399      c-1.515,0.072-2.957-0.358-4.185-1.227v-1.874l0,0L370.06,124.187z"/>
			</g>
		</g>
	</g>
	<path fill="#8DC63F" d="M468.421,20.989L468.421,20.989c2.382-0.646,4.472-2.023,6.063-3.969c1.586-1.658,2.526-3.825,2.599-6.136   c-0.072-0.725-0.145-1.443-0.36-2.167c-0.939,1.155-2.311,1.874-3.825,1.946c-1.155,0-2.31-0.431-3.172-1.227   c-0.868-0.868-1.3-2.095-1.228-3.322c-0.072-1.299,0.503-2.526,1.515-3.395c1.011-0.939,2.382-1.371,3.753-1.371   c2.023,0,3.897,0.868,5.052,2.454c1.372,1.803,2.096,3.969,2.024,6.136c0,3.245-1.371,6.352-3.754,8.59   c-2.239,2.383-5.34,3.753-8.662,3.825v-1.371l0,0L468.421,20.989z M484.805,20.774L484.805,20.774   c2.311-0.725,4.4-2.095,5.992-3.969c1.586-1.658,2.525-3.825,2.525-6.136c0-0.724-0.07-1.442-0.287-2.167   c-0.939,1.156-2.31,1.802-3.824,1.946c-1.156,0-2.312-0.432-3.174-1.299c-0.796-0.868-1.299-2.023-1.227-3.245   c-0.072-1.299,0.503-2.598,1.515-3.466c1.012-0.868,2.382-1.299,3.753-1.227c1.945-0.072,3.824,0.796,5.053,2.383   c1.37,1.73,2.095,3.969,2.022,6.208c0,3.173-1.371,6.279-3.681,8.513c-2.239,2.455-5.412,3.825-8.662,3.825v-1.371l0,0   L484.805,20.774z"/>
</g>
</svg>