<svg xmlns="http://www.w3.org/2000/svg" width="232" height="53" viewBox="0 0 232 53">
  <g id="Group_891" data-name="Group 891" transform="translate(-519.244 -551)">
    <g id="Group_524" data-name="Group 524" transform="translate(611.277 551)">
      <path id="Path_431" data-name="Path 431" d="M129.3,24.986h0c-.185,0-.185.093-.185.093h-.185l-.093.093h-.371l-.185.093-.093.093H128.1l-.278.093h-.371l-.278.093c-.093,0-.093,0-.093.093a.341.341,0,0,1-.278.093h-.278l-.093.093h-.185l-.093.093h0l-.278.093h-.556l-.093.093h0a.091.091,0,0,1-.093.093.091.091,0,0,0-.093.093h-.185l-.278.185a.324.324,0,0,0,.185.093h0v.093H124.3l-.093.093h-.742a.324.324,0,0,1-.185.093h-.742l-.649.093h-.278l-1.02.093h0v.834h-1.3a.091.091,0,0,0-.093.093h.093l-.185.093h-.185l-.093.093h-.185c-.093,0-.093,0-.185.093h-.927c-.093,0-.093,0-.093.093h-.556v.093h0a.091.091,0,0,0-.093.093h-.649c-.093,0-.093,0-.093.093h-.834l-.093.093h-.834c0,.093,0,.093-.093.093a.34.34,0,0,0-.278.093h-.649a.091.091,0,0,0-.093.093h-1.112a.091.091,0,0,1-.093.093h-1.112c-.278,0-.556-.093-.834-.093s-.556-.093-.927-.093a1.241,1.241,0,0,1-.463-.093v.463l-.093.093c0,.093,0,.093.093.093h0v.093a.091.091,0,0,0,.093.093l-.093.093a.34.34,0,0,0,.093.278h0V31.2l.093.093-.093.093v1.39a.091.091,0,0,0-.093.093h-.093v-.093h-.093v.093h-.093v0h0v-.278h-.185v-.093h-.093l-.093-.093H107.8v-.278h-.093V32.03h0v.185h-.093c0-.093,0-.093-.093-.093V32.03h-.185v.185l-.093-.093v-.278h0c0-.093,0-.093-.093,0v.278l.093.093a1.241,1.241,0,0,0,.093.463v.371l.093.093v.185h.093V33.7h.093v.093l.093.093v.093l.093.093v.093h0c0,.093,0,.093.093.185v.093h0v.093l.093.093V34.9h.093V35h0l.093.093v.093l.093.093v.371a.091.091,0,0,1,.093.093v.093h-.093v.093h-.093v-.093l-.093-.093h-.093l.093.093h-.093V36.2l.093.093h-.093l-.093-.093h-.185l-.093-.093-.093-.093-.093-.093h-.278l-.093-.093h0a.324.324,0,0,0-.185-.093.091.091,0,0,0-.093-.093V35.46c-.093-.093-.185-.093-.278-.185l-.093-.093L106.222,35V34.9l-.093-.093-.093-.093v-.093h0l-.093-.093-.093-.093h0a.34.34,0,0,1-.093-.278V34.07h-.185v-.185l-.093-.093H105.2a.091.091,0,0,0-.093-.093l-.093-.093h-.093a.091.091,0,0,0-.093-.093.091.091,0,0,1-.093-.093l-.093.093h-.093c-.093-.093-.093-.093-.093-.185s0-.093-.093-.093c0-.093,0-.093-.093-.093v-.463c0-.093,0-.093-.093-.093,0-.093,0-.185-.093-.185,0-.093,0-.093-.093-.185v-1.3l-.093-.834V29.9l-.093-.093v-.834h-.185v-.185h0a.091.091,0,0,1-.093-.093h0a.324.324,0,0,1-.093-.185h-.093v-.371h0v-.371c0-.093,0-.093-.093-.093v-.649c0-.093,0-.093-.093-.093h-.093v.093l-.093-.093v-1.39h-.093l-.093.093v-.649h0v-.834h0V23.41a.091.091,0,0,1-.093-.093v-.093c0-.093,0-.093.093-.185v-.278c0-.093,0-.185.093-.185l-.093-.093h.093v-1.39l.093-.278.093-.556V19.7a.694.694,0,0,1,.093-.463v-.927h0v-.185c0-.093,0-.185.093-.185v-.463c0-.093,0-.093.093-.093v-.093a.091.091,0,0,1,.093-.093v-.927a.091.091,0,0,1,.093-.093v-.649a.091.091,0,0,1,.093-.093v-.556a.091.091,0,0,0,.093-.093v-.556c0-.093,0-.093.093-.093,0-.185,0-.278.093-.371v-.278h0c0-.093.093-.185.093-.371v-.463c0-.093.093-.185.093-.371,0-.093,0-.093.093-.093v-.278l.093-.556v-.371h0V10.9a.717.717,0,0,1,.093-.278h0a.091.091,0,0,1,.093-.093v-.278h0l.093-.093V9.969l.093-.371V9.042h0V8.95a.091.091,0,0,0,.093-.093h0V8.764h0a1.24,1.24,0,0,0,.093-.463c0-.093.093-.093.093-.185a.091.091,0,0,0,.093-.093.091.091,0,0,1,.093-.093V7.559l.185-.649V6.447c0-.093,0-.093.093-.093V6.169h.093V5.891l.093-.093.093-.093.093-.093V5.52c0-.093,0-.093.093-.093h0a.091.091,0,0,1,.093-.093h.093c0-.093,0-.093.093-.093h.093V5.057c0-.093,0-.093.093-.093,0-.093,0-.093.093-.093V4.593L106.5,4.5a.091.091,0,0,0,.093-.093l.093-.093.093-.093a.091.091,0,0,0,.093.093V4.222h.278l.093-.093h.093l.093-.093h.185l.093-.093.093-.093h0V3.573a.557.557,0,0,1,.093-.371c0-.093,0-.093.093-.093V2.832h0a.324.324,0,0,0,.093-.185h.093V2.554h0c0-.093,0-.093.093-.093h0a.091.091,0,0,0,.093-.093c0-.093,0-.093.093-.093V2h0V1.72h.093c0,.093,0,.093.093.093h0v.093a.091.091,0,0,1,.093-.093h0V1.72H109V1.534h.093c0-.093,0-.093.093-.093v.463h.371a.091.091,0,0,0,.093-.093h.093c0-.093.093-.093.093,0h.278a.091.091,0,0,0,.093-.093h.093l.093-.093.093-.093.093-.185.093-.093h.093V.885h.463l.093-.093h.463a.093.093,0,0,1,.185,0h.278V.885h.093a.324.324,0,0,1,.093.185v.834H111.32l.093-.093h.278v.093h0v.278a.091.091,0,0,0,.093.093h.093v.093h0v.278h.093V3.11a.324.324,0,0,0-.093.185v.185h0v.371c0,.093-.093.185-.093.278v.093l-.278,1.483-.093.093v.185l-.093.278v.093l.093.093-.093.093c.093,0,.093,0,.093.093.093,0,.093,0,0,.093h0v.093l.093.093v.742l-.093.093V8.3c0,.093,0,.185-.093.185v.185a.091.091,0,0,1-.093.093v.278c0,.093-.093.093-.093.185v.649l-.093.093v.093l-.093.093h0a.341.341,0,0,1-.093.278v.742l-.093.093.093-.093a.091.091,0,0,0,.093-.093.091.091,0,0,1,.093-.093l.093-.185h.093c.093-.093.093-.185.185-.278s.093-.185.185-.278l.278-.278.093-.093.093-.093.093-.093.093-.093.556-.649.093-.093V8.672l.278-.371.093-.093h.093l.093-.093.093-.093.185-.093V7.837c.093-.093.093-.093.185-.093l.093-.093h.093l.093-.093h.093a.091.091,0,0,1,.093-.093h.278a.287.287,0,0,1,.185-.093h.093a.091.091,0,0,1,.093-.093l.093-.093.093-.093L115.306,7h.093l.093-.093c.093,0,.093,0,.093-.093h.185l.093-.093v.093h.278l.093-.093h.371a.091.091,0,0,1,.093-.093h.093V5.984h.093c.093-.093.185-.278.371-.371l.185-.093.093-.185.093-.093.093-.093.093-.093h.463l.093-.093.093-.093.093-.185.093-.093.093-.093h.093a.091.091,0,0,1,.093-.093h0v.185h0v.093h.093c.093,0,.093,0,.093-.093h.185v.093h.093l.093-.185.185-.185h.093a.091.091,0,0,1,.093-.093l-.185-.185v.278h0l-.093.185h1.205l.185-.093.093-.093.278-.093h.742v.093h.093l.093.185h0a.091.091,0,0,1,.093.093h-.093v.093a.091.091,0,0,1,.093.093h.093l-.093.093h0c0,.093,0,.093-.093.093l-.093.093a.091.091,0,0,0-.093.093l-.093.093c0,.093,0,.093-.093.093v.093c-.093,0-.093,0-.093.093V5.8h.371l.093.093h.093v.185h-.093V6.54l-.093.093-.093.093h.093a.091.091,0,0,0-.093.093h0L121.98,7h0V7.1h-.093v.093l-.093.093-.093.185-.093.093c-.093.093-.093.093-.093.185l-.185.185h-.093l-.278.463c-.093.093-.185.093-.278.278v.093h0l-1.205,1.483-.093.185h-.093v.093c0,.093,0,.093-.093.093l-.278.371v.185l-.093.093v.185h0a.091.091,0,0,1-.093.093h0c0,.093,0,.093-.093.093v.185l-.185.093V12.1l-.093.093-.093.093-.093.093-.093.093c0,.093,0,.093-.093.093l-.093.093a.091.091,0,0,0-.093.093.091.091,0,0,1-.093.093l-.093.185a.091.091,0,0,0-.093.093.091.091,0,0,1-.093.093c0,.093,0,.093-.093.093a.324.324,0,0,0-.093.185c-.093,0-.093,0-.093.093v.093h0l-.093.093-.093.093a.287.287,0,0,0-.093.185l-.185.185-.093.185-.093.093-.093.093V14.7a.091.091,0,0,1-.093.093.091.091,0,0,0-.093.093c0,.093,0,.093-.093.185-.093,0-.093,0-.093.093l-.185.278-.093.093a.091.091,0,0,1-.093.093l-.093.093-.093.185-.093.093a.091.091,0,0,1-.093.093l-.185.185c0,.093-.093.093-.093.185a.324.324,0,0,0-.093.185l-.093.185-.093.278a.091.091,0,0,1-.093.093c0,.093,0,.093-.093.185a.091.091,0,0,1-.093.093l-.093.093-.093.185c0,.093-.093.093-.093.185a.324.324,0,0,0-.093.185.091.091,0,0,1-.093.093l-.185.278-.093.185c0,.093,0,.093-.093.185l-.185.185-.093.185-.093.278-.093.093-.093.093h-.093a.091.091,0,0,1-.093.093l-.093.093c-.093.093-.093.093-.093.185l-.093.185v.185l-.093.185L112.34,21l-.093.278-.093.093v.093h0l-.185.278v.093c-.093.093-.093.093-.093.185a.091.091,0,0,1-.093.093l-.093.093-.093.093h0c0,.093,0,.093-.093.185h0a.091.091,0,0,0-.093.093h-.093l-.093.093h-.093v.093a.091.091,0,0,1-.093.093l-.093.093h0l-.093.093-.093.278-.093.093a3.278,3.278,0,0,0,.556.093H112.9a.174.174,0,0,1,.278,0c.093,0,.185-.093.278-.093h2.132c.185,0,.278,0,.278.093h.556l1.3-.093h.649c.093,0,.185,0,.185-.093h3.522a.341.341,0,0,0,.278-.093h2.781v.185h.185l-.093.093h-.185l.093.093h-.463a.091.091,0,0,0-.093.093h0v.093h-.185l-.093.093a.091.091,0,0,0,.093.093h-.371l-.093.093h.371l-.093.093h-.556l-.093.093h2.688a.7.7,0,0,0,.371-.093h2.874a.091.091,0,0,0,.093.093h.371v.093h.093l-.093.093h-.185l-.093.093h.093a.091.091,0,0,0,.093.093l-.556.371Z" transform="translate(-102.7 -0.237)" fill="#131111"/>
      <path id="Path_432" data-name="Path 432" d="M150.083,16.175v1.576l-.093.093v.093l-.093.278v.742a.324.324,0,0,0-.093.185c0,.093,0,.093-.093.185v.556l-.185.556a1.63,1.63,0,0,1-.093.556c0,.093-.093.185-.093.278a.7.7,0,0,0-.093.371l-.185.371-.093.278a.34.34,0,0,1-.093.278.341.341,0,0,1-.093.278.34.34,0,0,0-.093.278V23.4l-.093.185a.34.34,0,0,1-.093.278.341.341,0,0,1-.093.278.34.34,0,0,0-.093.278.34.34,0,0,0-.093.278,1.509,1.509,0,0,1-.278.556v.278h-.093l-.278.649h0v.093l-.093.093a.341.341,0,0,1-.093.278l-.093.278-.093.278a.341.341,0,0,0-.093.278l-.093.185a.847.847,0,0,1-.278.463l-.278.371-.093.185-.093.278-.093.185-.371.371c-.093.185-.185.371-.278.371l-.278.371-.742.834-.371.371-.185.185-.093.093-.834.742c-.185.093-.371.278-.371.371l-.371.278-.464.278-.278.185-.278.093-.556.278-1.02.556-.093.093h-.185l-.185.093h-.278l-.464.093-.463.093-.463.093-.278.093h-2.225c-.093,0-.185-.093-.278-.093h-.371a.694.694,0,0,1-.463-.093h-1.02l-.371-.093-.371-.093-.278-.093a.34.34,0,0,0-.278-.093.287.287,0,0,0-.185-.093.091.091,0,0,1-.093-.093c-.093,0-.093-.093-.185-.093l-.185-.093-.093-.093H130.8a.482.482,0,0,1-.371-.185c-.093,0-.093-.093-.185-.093s-.093-.093-.185-.093l-.185-.093-.093-.093c-.093,0-.185-.093-.371-.278a1.147,1.147,0,0,0-.278-.185l-.371-.278-.093-.093-.093-.185-.185-.185-.185-.185-.093-.093-.093-.093-.185-.185c0-.093-.093-.185-.278-.371l-.093-.093a14.139,14.139,0,0,1-1.02-1.483l-.278-.463c0-.093,0-.093-.093-.185,0-.093-.093-.093-.093-.185a.341.341,0,0,1-.093-.278l-.185-.371c0-.093-.093-.093-.093-.185a.324.324,0,0,1-.093-.185.717.717,0,0,0-.093-.278c-.093-.185-.093-.278-.185-.463a.836.836,0,0,1-.093-.463l-.093.093v-.278l-.093-.278v-.093a.091.091,0,0,0-.093.093l-.093.185v.093a.091.091,0,0,1-.093.093v-.834c0-.093-.093-.093-.093-.278,0-.093,0-.185.093-.185v-.371l-.093-.371v-.463a.7.7,0,0,0-.093-.463V20.995c0-.093.093-.093.093-.185v-.185c0-.093,0-.185.093-.185v-.185a.091.091,0,0,0,.093-.093v-.278c0-.093,0-.093.093-.185l.093-.093v-.371l.093-.371v-.834h0v-.185l.093-.093c0-.093,0-.093.093-.093v-.371a.091.091,0,0,0-.093.093.091.091,0,0,1-.093.093V17.38a.557.557,0,0,1,.093-.371l.093-.278c0-.093,0-.093.093-.185,0-.093.093-.093.093-.185h0v-.185l.278-.649c0-.093.093-.093.093-.185a.324.324,0,0,0,.093-.185l.093-.371.093-.185c0-.093,0-.093.093-.185l.185-.371.093-.093a.924.924,0,0,1,.093-.371l.093-.185.093-.185.093-.093a.091.091,0,0,1,.093-.093,4.519,4.519,0,0,0,.278-.649l.185-.278.093-.371c.093-.093.093-.093.093-.185s.093-.093.093-.185a.091.091,0,0,0,.093-.093.091.091,0,0,1,.093-.093l.093-.278.371-.742.371-.463.278-.371.093-.278h.093l.093-.093c0-.093,0-.093.093-.093l.093-.093.093-.185.185-.278.093-.093.742-1.02.093-.093h0V7a.324.324,0,0,0,.093-.185h-.185c.927-.093.927-.185.927-.185a.091.091,0,0,1,.093-.093l.093-.093h0l.093-.093c0-.093,0-.093.093-.093a.5.5,0,0,1,.278-.371V5.793l.185-.093.185-.371.371-.278q0-.139.278-.278l.185-.185c.093-.093.093-.093.093-.185a.324.324,0,0,1,.185-.093l.185-.278a.2.2,0,0,0,.185-.185l.185-.185.463-.371A.091.091,0,0,0,134.7,3.2h.093l.371-.278.185-.093h.093V2.734h.185l.278-.185h.093l-.371.185h0l.185-.093.185-.093a.341.341,0,0,0,.278-.093h.185c.093-.093.093-.093.278-.093.093-.093.093-.093.185-.093a.341.341,0,0,1,.278-.093l.278-.093a.287.287,0,0,0,.185-.093h2.874l-.185-.093h.093l.834.093h.278c.093,0,.093,0,.093.093h.371a.287.287,0,0,1,.185.093.341.341,0,0,1,.278.093h.371l.371.093.278.093a.091.091,0,0,1,.093.093l.093.093a.341.341,0,0,1,.278.093l.371.185.093.093a.091.091,0,0,1,.093.093c.093.093.185.093.278.185h.093l.093.093c.093.093.278.185.463.371.093,0,.093,0,.278.093l.093.093c.093.093.185.093.278.185l.185.185.185.093.185.185a.091.091,0,0,1,.093.093.324.324,0,0,1,.093.185l.278.371.093.093.093.093.093.278c.093.093.093.185.185.278.093,0,.093.093.185.278l.185.278a.341.341,0,0,0,.093.278c0,.093,0,.185.093.185V6.627a.091.091,0,0,0,.093.093l.093.093a12.054,12.054,0,0,1,.742,1.576l.278.834a2.707,2.707,0,0,1,.185.834c.093.278.093.463.185.742s.093.556.185.834c0,.278.093.463.093.742s.093.556.093.742c0,.093.093.185.093.278v2.781Zm-5.932-3.43c0-.278-.093-.556-.093-.834v-.278a.091.091,0,0,0-.093-.093v-.278l-.093-.093V10.8l-.093-.185v-.185l-.093-.185v-.185l-.185-.371-.093-.185-.093-.185V9.223l-.093-.093-.093-.093V8.945l-.093-.093a.091.091,0,0,0-.093-.093c-.093-.093-.093-.185-.185-.278l-.278-.278-.093-.093-.093-.093-.093-.093h0a.091.091,0,0,0-.093-.093l-.463-.278a.091.091,0,0,1-.093-.093c-.093,0-.093,0-.093-.093l-.278-.093a.482.482,0,0,1-.371-.185L140.536,7h-.556l-.185-.371h-1.483l-.278.093-.185.093c-.093,0-.093,0-.185.093a6.911,6.911,0,0,0-1.576,1.3l-.463.371-.463.649c0,.093-.093.185-.185.278s-.185.278-.371.371l-.093.093a.2.2,0,0,1-.185.185c-.093.185-.093.185-.093.278s-.093.093-.093.185h-.093l-.093.093-.185.278c0,.093-.093.093-.093.185l-.185.185-.185.278-.093.093a.091.091,0,0,1-.093.093c0,.093,0,.093-.093.185v.649a.091.091,0,0,1-.093.093v.185l-.093.093a.341.341,0,0,0-.093.278l-.093.278-.278.649v.185h0V14.6l-.093.371-.093.185v.278a.341.341,0,0,1-.093.278v.371l-.278.834c-.093.278-.093.556-.185.834l-.278,1.668v1.668h0v.371c.093,0,.093.093.093.185a.324.324,0,0,1,.093.185v.093h.093v.371h0a.091.091,0,0,1,.093.093c0,.093,0,.185.093.185v1.205c0,.093.093.093.093.278a.324.324,0,0,1,.093.185v.185l.093.371v.278h0v.371c.093.093.093.093.093.185v.185l.093.093V26h.093l.093.093v.185l.093.093v.093l.093.093c0,.093,0,.093.093.093a670.624,670.624,0,0,1,.185.185l.093.093c.093,0,.093,0,.093.093h.093l.093.093h0a.091.091,0,0,0,.093.093l.093.093v.093h.093v.093h.093l.093.093.093.093h.093c.093.093.185.093.278.185l.093.093h.093l.278.093h.093a.091.091,0,0,0,.093.093h.556c.093,0,.093,0,.093.093h.463l.093-.093h1.669l.185-.093h.093l.093-.093h.093l.093-.093c.093,0,.093,0,.185-.093l.185-.093.278-.185.278-.185.093-.185c.093,0,.093,0,.093-.093l.185-.093v-.093h.093l.185-.093.093-.093.093-.093.093-.093a4246.754,4246.754,0,0,1,.185-.185l.093-.093.185-.278c.093,0,.093-.093.185-.278l.185-.185.093-.185a.091.091,0,0,1,.093-.093l.185-.371c.093-.093.093-.093.093-.185s.093-.093.093-.185,0-.093.093-.185h0v-.185l.278-.463V23.5h0V23.4l.278-.556v-.093h0l.093-.278h.093l.093-.278v-.093l.093-.093v-.185c.093-.093.185-.185.185-.278h.093v-.185l.185-.185c.093,0,.093,0,.093-.093a.341.341,0,0,0,.093-.278c.093-.185.093-.463.185-.649s.093-.371.185-.556l.093-.371h0v-.185a20.925,20.925,0,0,0,.371-2.688.341.341,0,0,1,.093-.278v-.093c-.093-.093-.093-.185,0-.371v-.742c0-.093-.093-.185-.093-.278V13.95h.093v-.371c0-.093,0-.185-.093-.185a.324.324,0,0,0,.093-.185v-.463ZM131.359,6.813Z" transform="translate(-104.293 -0.324)" fill="#131111"/>
      <path id="Path_433" data-name="Path 433" d="M170.236,24.393h0c-.093.185-.093.185-.093.278h0v.185c0,.093,0,.093-.093.093l-.093.185-.093.093v.185h0l-.093.093h0V25.6l-.093.093-.093.093-.093.093-.185.185-.093.278v.185h0l-.093.093a.091.091,0,0,1-.093.093h0l-.093.093-.093.093v.185h-.093v.278h0a.091.091,0,0,1-.093.093c-.093.093-.093.185-.185.278h0v.093h0v.093l-.093.093v1.02h.093v.093a.324.324,0,0,1-.093.185.091.091,0,0,1-.093.093H168.2l-.093.093-.649.649a.2.2,0,0,1-.185.185l-.185.093h-.093a.287.287,0,0,1-.093.185h-.093a.091.091,0,0,0-.093.093v.093a.091.091,0,0,0-.093.093c-.093.093-.185.093-.278.278a1.28,1.28,0,0,1-.371.278l-.185.093-.093.093-1.02.742h-.093l-.093.093-.093.093-.093.093c-.093.093-.093.093-.185.093h-.093l-.649.371-.093.093h0l-.093.093h.093a.287.287,0,0,1-.093.185h-.185l-.185.185h0l-.093.093-.185.093-.185.093a1061.851,1061.851,0,0,1-.185.185l-.093.093a.091.091,0,0,0-.093.093H161.8V34.4a.287.287,0,0,0-.185.093c-.093,0-.093,0-.185.093a.34.34,0,0,0-.278.093h-.185l-.093.093h-.093l-.093.093H160.5l-.185.093h.185l-.093.093c-.093,0-.185.093-.278.093h-.371c-.093,0-.185.093-.278.093h-2.224l.093.093h-.185a.091.091,0,0,1-.093-.093h-.742l-.371-.093h-.185l-.185.093-.185-.093a.091.091,0,0,1-.093-.093h-.185c-.093,0-.093,0-.093-.093l-.278-.093-.185-.093-.185-.093H154.2l-.278-.278-.185-.185q-.139,0-.278-.278l-.185-.185-.093-.093-.093-.093-.185-.185-.185-.278-.093-.093-.278-.278-.185-.278v-.093l-.093-.093-.556-1.02-.185-.556c0-.093-.093-.093-.093-.185s-.093-.185-.093-.278c-.093-.278-.185-.649-.278-.927a3.3,3.3,0,0,1-.185-.927V27.266c0-.093-.093-.185-.093-.371V26.71a.324.324,0,0,1-.093-.185V22.817l-.093-.093a.091.091,0,0,1,.093-.093V15.958l.093-.742v-.649c0-.185,0-.278.093-.371V14.1a.091.091,0,0,0,.093-.093c0-.093,0-.185.093-.185v-.834a.324.324,0,0,0,.093-.185v-.093l.093-.649v-.556c0-.093,0-.185.093-.185v-.185a.324.324,0,0,0,.093-.185v.185c0-.093.093-.278.093-.371V10.4a.287.287,0,0,0,.093-.185V9.933a.091.091,0,0,0,.093-.093V9.747l.093-.093.185-.927a.341.341,0,0,1,.093-.278V8.172a.7.7,0,0,0,.093-.371c0-.093,0-.093.093-.093a.091.091,0,0,1,.093-.093h0V6.781c0-.093.093-.093.093-.185l.093-.185V6.318h0a.091.091,0,0,0,.093-.093l.093-.278h.093V5.576l.093-.185V5.205h0l.093-.093h.093V4.927L153,4.835h.093l.093-.093h0c.093,0,.093,0,.093.093l.463-.185h.093V4.557l.093-.093a.091.091,0,0,1,.093-.093h.093c.093,0,.093-.093.093-.185L154.293,4h0V3.908l.185-.556c0-.093,0-.093.093-.185,0-.093,0-.185.093-.185l.093-.185a.091.091,0,0,1,.093-.093.091.091,0,0,1,.093-.093c0-.093,0-.093.093-.093V2.425h0V2.239h.093l.093-.093V1.961a.34.34,0,0,0,.093-.278c.093-.093.093-.185.093-.093V1.405h0V.942h.093v.185l.093-.093V1.22h.093l.093-.093h.093l.093-.093v.093l.093-.093.185-.371h0l.093-.185V.663c0,.093-.093.093-.093.185V1.22l.093-.093h.185L156.8.942c0-.093.093-.093.093,0h.556l.093-.278a.091.091,0,0,1,.093-.093l.093-.185.093-.093H158V.2h.742l.185.093h.093V.385h0V.478h.185v.649a.091.091,0,0,1,.093.093v.185l-.093.093v.278h.185l.093-.093h.278v.185h0v.093h0v.185h.093v.185l-.093.093v.093a.091.091,0,0,1,.093.093V2.8a.091.091,0,0,0-.093.093v.093l-.093.093v.185l-.093.093v.371h-.093a.091.091,0,0,0,.093.093l-.093.371a.7.7,0,0,0-.093.371v.093l-.185.927-.185.556-.649.371v.742a.34.34,0,0,1-.093.278.091.091,0,0,1,.093.093v.278a.091.091,0,0,1,.093.093h0a.091.091,0,0,1-.093.093v.278a.091.091,0,0,1,.093.093V10.3a.406.406,0,0,0-.093.278v.649a.34.34,0,0,1-.093.278v.185c0,.093-.093.185-.093.278a.324.324,0,0,0-.093.185v.649a.34.34,0,0,1-.093.278v.649c0,.093,0,.185-.093.185v.649c0,.093-.093.185-.093.278v.649a.341.341,0,0,1-.093.278h0v.093c0,.093-.093.093-.093.278v.927c0,.093,0,.185-.093.185v2.132l-.093.093v1.668h0v.185c0,.185,0,.278-.093.371v.556a.091.091,0,0,0-.093.093v.834h-.093v.093l-.093.185v1.02c0,.093,0,.185-.093.185v.834a2.042,2.042,0,0,0,.093.742c0,.093,0,.185-.093.185a.091.091,0,0,0,.093.093v.649h0v.371h0v.742h.093c0,.093,0,.093.093.093v.093h0l.093.093v.185l.093.185.185.185a1.94,1.94,0,0,0,.371.556v.093h.093l.093.093h.093l.093.093c.093,0,.093,0,.093.093h.093a.091.091,0,0,1,.093.093h.185l.093.093h.278a.091.091,0,0,1,.093.093h.185a.091.091,0,0,1,.093.093h.463l.927-.371.093-.093h.185a.287.287,0,0,1,.185-.093l.185-.093c.093-.093.093-.093.185-.093l.278-.093h.093l.093-.093h.185l.093-.093.185-.093.185-.093.093-.093h.093l.093-.093.093-.093h.093l.093-.093.093-.093h.093l.093-.093h.093l.185-.185h.093l.093-.093h.185l.185-.185a.287.287,0,0,1,.185-.093l.093-.093.185-.093h.185l.093-.093.093-.093.185-.093.093-.093h.093l.093-.093a.091.091,0,0,0,.093-.093h.185a.091.091,0,0,0,.093-.093h.185v-.093h.093l.093-.093h.371l-.093.093v.093h.093l.093-.093h.093v.093l-.093.093h0l.185-.093c0,.093,0,.093-.093.093l-.093.093h-.093l-.093.093-.093.093v.093h0l-.093.093v.093h0v.093h.093V28.1a.287.287,0,0,0-.185.093v.093h-.185a.091.091,0,0,1-.093.093h.093l.093-.093h.093l-.093.093-.093.093a.091.091,0,0,0-.093.093h.185l-.278.278h-.185a.091.091,0,0,1-.093.093h.093l.278-.185.093-.093.463-.556c.093-.093.093-.093.185-.093l.093-.093.371-.371.185-.093.093-.093.463-.463h.093V26.8h.093l.093-.185.093-.093.093-.093h.093l.185-.278.093-.093h.093l.093-.278.278-.278a.091.091,0,0,1,.093-.093.091.091,0,0,0,.093-.093h.093c.093-.093.093-.185.093-.093l.093-.093c.093-.093.093-.185.093-.093.093,0,.093,0,.093-.093a.287.287,0,0,0,.185-.093h.185l.093-.093.093-.093a.091.091,0,0,1,.093.093l.093-.093c0,.093,0,.093-.093.093v.093l-.093.093v.093h0c.093,0,.093,0,.093-.093v.093l.093-.093h.093c-.835-.463-.835-.556-.835-.556Zm-4.449,3.893Zm.093-.742Zm0,.649-.093.093Z" transform="translate(-106.185 -0.2)" fill="#131111"/>
      <path id="Path_434" data-name="Path 434" d="M194.461,24.986h0c-.185,0-.185.093-.185.093h-.185l-.093.093h-.371l-.185.093-.093.093h-.093l-.278.093h-.371l-.278.093c-.093,0-.093,0-.093.093a.341.341,0,0,1-.278.093h-.278l-.093.093H191.4l-.093.093h-.093l-.278.093h-.556l-.093.093h0a.091.091,0,0,1-.093.093.091.091,0,0,0-.093.093h-.185l-.278.185a.324.324,0,0,0,.185.093h0v.093h-.463l-.093.093h-.742a.324.324,0,0,1-.185.093H187.6l-.649.093h-.278l-1.02.093h-.093l-.093.093h-1.3a.091.091,0,0,0-.093.093h.093l-.185.093H183.8l-.093.093h-.278c-.093,0-.093,0-.185.093h-.927c-.093,0-.093,0-.093.093h-.649v.093h.464a.091.091,0,0,0-.093.093H181.3c-.093,0-.093,0-.093.093h-.927l-.093.093h-.834c0,.093,0,.093-.093.093a.341.341,0,0,0-.278.093h-.649a.091.091,0,0,0-.093.093h-1.112a.091.091,0,0,1-.093.093h-1.112c-.278,0-.556-.093-.834-.093s-.556-.093-.927-.093a1.24,1.24,0,0,1-.463-.093v.463l-.093.093c0,.093,0,.093.093.093h0v.093a.091.091,0,0,0,.093.093l-.093.093a.34.34,0,0,0,.093.278h0v1.205l.093.093-.093.093v2.132a.091.091,0,0,0-.093.093h-.093v-.093h-.093v.093h-.371v0h0v-.278h-.185v-.093h-.093l-.093-.093h-.185v-.278h-.093V32.03h0v.185H172.4c0-.093,0-.093-.093-.093V32.03h-.185v.185l-.093-.093v-.278h0c0-.093,0-.093-.093,0v.278l.093.093a1.24,1.24,0,0,0,.093.463v.371l.093.093v.185h.093V33.7h.093v.093l.093.093v.093l.093.093v.093h0c0,.093,0,.093.093.185v.093h0v.093l.093.093V34.9h.093V35h0l.093.093v.093l.093.093v.371a.091.091,0,0,1,.093.093v.093h-.093v.093h-.093v-.093l-.093-.093h-.093l.093.093h-.093V36.2l.093.093h-.093l-.093-.093h-.185l-.093-.093-.093-.093-.093-.093h-.278l-.093-.093h0a.324.324,0,0,0-.185-.093.091.091,0,0,0-.093-.093V35.46c-.093-.093-.185-.093-.278-.185l-.093-.093L171.01,35V34.9l-.093-.093-.093-.093v-.093h0l-.093-.093-.093-.093h0a.34.34,0,0,1-.093-.278V34.07h-.185v-.185l-.093-.093h.371a.091.091,0,0,0-.093-.093l-.093-.093h-.093a.091.091,0,0,0-.093-.093.091.091,0,0,1-.093-.093l-.093.093h-.093c-.093-.093-.093-.093-.093-.185s0-.093-.093-.093c0-.093,0-.093-.093-.093v-.463c0-.093,0-.093-.093-.093,0-.093,0-.185-.093-.185,0-.093,0-.093-.093-.185v-1.3l-.093-.834V29.9l-.093-.093v-.834h-.185v-.185h0a.091.091,0,0,1-.093-.093h0a.324.324,0,0,1-.093-.185h-.093v-.371h0v-.371c0-.093,0-.093-.093-.093v-.649c0-.093,0-.093-.093-.093h.371v.093l-.093-.093v-1.39h-.093l-.093.093v-.649h0v-.834h0V23.41a.091.091,0,0,1-.093-.093v-.093c0-.093,0-.093.093-.185v-.278c0-.093,0-.185.093-.185l-.093-.093h.093v-1.39l.093-.278.093-.556V19.7a.7.7,0,0,1,.093-.463v-.927h0v-.185c0-.093,0-.185.093-.185v-.463c0-.093,0-.093.093-.093v-.093a.091.091,0,0,1,.093-.093v-.927a.091.091,0,0,1,.093-.093v-.649a.091.091,0,0,1,.093-.093v-.556a.091.091,0,0,0,.093-.093v-.556c0-.093,0-.093.093-.093,0-.185,0-.278.093-.371v-.278h0c0-.093.093-.185.093-.371v-.463c0-.093.093-.185.093-.371,0-.093,0-.093.093-.093v-.278l.093-.556v-.371h0V10.9a.717.717,0,0,1,.093-.278h0a.091.091,0,0,1,.093-.093v-.278h0l.093-.093V9.969l.093-.371V9.042h0V8.95a.091.091,0,0,0,.093-.093h0V8.764h0a1.24,1.24,0,0,0,.093-.463c0-.093.093-.093.093-.185a.091.091,0,0,0,.093-.093.091.091,0,0,1,.093-.093V7.559l.185-.649V6.447c0-.093,0-.093.093-.093V6.169h.093V5.891l.093-.093.093-.093.093-.093V5.52c0-.093,0-.093.093-.093h0a.091.091,0,0,1,.093-.093h.093c0-.093,0-.093.093-.093h.093V5.057c0-.093,0-.093.093-.093,0-.093,0-.093.093-.093V4.593L172.4,4.5a.091.091,0,0,0,.093-.093l.093-.093.093-.093a.091.091,0,0,0,.093.093V4.222h.278l.093-.093h.093l.093-.093h.185l.093-.093.093-.093h0V3.573a.557.557,0,0,1,.093-.371c0-.093,0-.093.093-.093V2.832h0a.324.324,0,0,0,.093-.185h.093V2.554h0c0-.093,0-.093.093-.093h0a.091.091,0,0,0,.093-.093c0-.093,0-.093.093-.093V2h0V1.72h.093c0,.093,0,.093.093.093h0v.093a.091.091,0,0,1,.093-.093h0V1.72h.278V1.534H175c0-.093,0-.093.093-.093v.463h.371a.091.091,0,0,0,.093-.093h.093c0-.093.093-.093.093,0h.278a.091.091,0,0,0,.093-.093h.093l.093-.093.093-.093.093-.185.093-.093h.093V.885h.464l.093-.093h.464a.093.093,0,1,1,.185,0h.278V.885h.093a.324.324,0,0,1,.093.185v.834h.185l.093-.093.093-.093h.278v.093h0V2.09a.091.091,0,0,0,.093.093h.093v.093h0v.278h.093v.463a.324.324,0,0,0-.093.185v.185h0v.371c0,.093-.093.185-.093.278V4.13L178.8,5.613l-.093.093v.185l-.093.278v.093l.093.093-.093.093c.093,0,.093,0,.093.093.093,0,.093,0,0,.093h0v.093l.093.093v.742l-.093.093v.556c0,.093,0,.185-.093.185v.185a.091.091,0,0,1-.093.093V8.95c0,.093-.093.093-.093.185v.649l-.093.093v.093l-.093.093h0a.341.341,0,0,1-.093.278v.834l-.093.093-1.669-.093a.091.091,0,0,0,.093-.093.091.091,0,0,1,.093-.093l.093-.185h.093c.093-.093.093-.185.185-.278s.093-.185.185-.278l.278-.278.093-.093.093-.093.093-.093.093-.093.556-.649.093-.093V8.672L178.7,8.3l.093-.093h.093l.093-.093.093-.093.185-.093V7.837c.093-.093.093-.093.185-.093l.093-.093h.093l.093-.093h.093a.091.091,0,0,1,.093-.093h.278a.287.287,0,0,1,.185-.093h.093a.091.091,0,0,1,.093-.093l.093-.093.093-.093L180.836,7h.093l.093-.093c.093,0,.093,0,.093-.093h.185l.093-.093v.093h.278l.093-.093h.371a.091.091,0,0,1,.093-.093h.093V5.984h.093c.093-.093.185-.278.371-.371l.185-.093.093-.185.093-.093.093-.093.093-.093h.463l.093-.093.093-.093.093-.185.093-.093.093-.093h.093a.091.091,0,0,1,.093-.093h0v.185h0v.093h.093c.093,0,.093,0,.093-.093h.185v.093h.093l.093-.185.185-.185h.093a.091.091,0,0,1,.093-.093l-.185.093v.278h0l-.093.185H186.3l.185-.093.093-.093.278-.093h.742v.093h.093l.093.185h0a.091.091,0,0,1,.093.093h-.093v.093a.091.091,0,0,1,.093.093h.093l-.093.093h0c0,.093,0,.093-.093.093l-.093.093a.091.091,0,0,0-.093.093l-.093.093c0,.093,0,.093-.093.093v.093c-.093,0-.093,0-.093.093v.278h.371l.093.093h.093v.185h-.093V6.54l-.093.093-.093.093h.093a.091.091,0,0,0-.093.093h0L187.51,7h0V7.1h-.093v.093l-.093.093-.464.185-.093.093-.093.093-.185.185H186.4l-.278.556c-.093.093-.185.093-.278.278v.093h0l-1.2,1.483-.093.185h-.093v.093c0,.093,0,.093-.093.093l-.278.371v.185l-.093.093v.185h0a.091.091,0,0,1-.093.093H183.8c0,.093,0,.093-.093.093v.185l-.185.093V12.1l-.093.093-.093.093-.093.093-.093.093c0,.093,0,.093-.093.093l-.093.093a.091.091,0,0,0-.093.093.091.091,0,0,1-.093.093l-.093.185a.091.091,0,0,0-.093.093.091.091,0,0,1-.093.093c0,.093,0,.093-.093.093a.324.324,0,0,0-.093.185c-.093,0-.093,0-.093.093v.093h0l-.093.093-.093.093a.287.287,0,0,0-.093.185l-.185.185-.093.185-.093.093-.093.093V14.7a.091.091,0,0,1-.093.093.091.091,0,0,0-.093.093c0,.093,0,.093-.093.185-.093,0-.093,0-.093.093l-.185.278-.093.093a.091.091,0,0,1-.093.093l-.093.093-.093.185-.093.093a.091.091,0,0,1-.093.093l-.185.185c0,.093-.093.093-.093.185a.324.324,0,0,0-.093.185l-.093.185-.093.278a.091.091,0,0,1-.093.093c0,.093,0,.093-.093.185a.091.091,0,0,1-.093.093l-.093.093-.093.185c0,.093-.093.093-.093.185a.324.324,0,0,0-.093.185.091.091,0,0,1-.093.093l-.185.278-.093.185c0,.093,0,.093-.093.185l-.185.185-.093.185-.093.278-.093.093-.093.093h-.093a.091.091,0,0,1-.093.093l-.093.093c-.093.093-.093.093-.093.185l-.093.185v.185l-.093.185-.185.371-.093.278-.093.093v.093h0l-.185.278v.093c-.093.093-.093.093-.093.185a.091.091,0,0,1-.093.093l-.093.093-.093.093h0c0,.093,0,.093-.093.185h0a.091.091,0,0,0-.093.093h-.093l-.093.093h.093v.093a.091.091,0,0,1-.093.093l-.093.093h0l-.093.093-.093.278-.093.093a3.279,3.279,0,0,0,.556.093h1.668a.174.174,0,0,1,.278,0c.093,0,.185-.093.278-.093h2.132c.185,0,.278,0,.278.093h.556l1.3-.093h.649c.093,0,.185,0,.185-.093h3.522a.34.34,0,0,0,.278-.093h2.781v.185h.185l-.093.093h-.185l.093.093h-.464a.091.091,0,0,0-.093.093h0v.093h-.464l-.093.093a.091.091,0,0,0,.093.093h-.371l-.093.093h.371l-.093.093h-.834l-.093.093h2.688a.7.7,0,0,0,.371-.093h2.874a.091.091,0,0,0,.093.093h.371v.093h.093l-.093.093h-.185l-.093.093h.093a.091.091,0,0,0,.093.093l-.093.371Z" transform="translate(-107.515 -0.237)" fill="#131111"/>
      <path id="Path_435" data-name="Path 435" d="M212.815,22.256h-.185c-.093,0-.093,0-.093.093h-.093l-.093.093h-.093l-.093.093h-.278l-.093.093h-.371l-.093.093h-.371c-.093,0-.093,0-.185.093a.091.091,0,0,0-.093.093h0a.091.091,0,0,0-.093.093h0v.185l-.093.093a.287.287,0,0,0-.093.185l.093.093h0l-.093.093h-.649c-.093,0-.093,0-.093.093h-1.112l-.649.093a.091.091,0,0,1-.093-.093v.093h0v8.342h-.093v.278h-.093v-.371a.091.091,0,0,0-.093.093v-.649h0v-.093c0-.093,0-.093-.093-.093h-.093v-.371h-.185v-.093a.091.091,0,0,0-.093.093h-.093v-.742h-.093V30.6H206.7v-.371H206.6v.093h-.093c0-.093-.093-.093-.093,0v-.649l-.093-.093v.742l.093,1.02V38.2h0a.091.091,0,0,0-.093.093h0v.463a.287.287,0,0,1-.185-.093v-.278a490.128,490.128,0,0,1-.185-.185v-.093l-.093-.093v.093l-.093.093v.093h-.093v-.463a.324.324,0,0,1-.093-.185V37.55c0-.185,0-.278-.093-.278v-.185l-.093-.278h0l-.093-.093a.091.091,0,0,1,.093-.093.557.557,0,0,1-.093-.371V35.7l-.093-.463a.324.324,0,0,1-.093-.185h0v-.371h0c0-.093,0-.093-.093-.185V34.4c0-.093,0-.185-.093-.185v-.185l-.093-.185V33.75a.557.557,0,0,0-.093-.371v-.093h-.093a.091.091,0,0,0-.093-.093v-.371h-.093V32.73h-.093a.091.091,0,0,1-.093-.093c0-.093,0-.093-.093-.093V32.36h.278a.324.324,0,0,0-.093-.185l-.093-.093h0v.093l-.093-.093a.406.406,0,0,1-.093-.278v-.371a.324.324,0,0,1-.093-.185v-.742a.34.34,0,0,0-.093-.278v-1.39l-.093-1.02v-.463l-.093-1.02h-1.02l-1.576.371h-.464c-.093.093-.185.093-.371.093l-.093.093h-.185a1.008,1.008,0,0,0-.464.093h0c-.093,0-.093,0-.093.093h-.556a.323.323,0,0,1-.185.093h-.185v.093h-.463l-.093.093h-.278c-.093,0-.093,0-.093.093h-.464a.091.091,0,0,0-.093.093h-.371l-.278.093h-.185l-.093.093h-.093c-.093,0-.185,0-.185.093h-.093l-.278.093H195.2a.7.7,0,0,1-.371.093.091.091,0,0,0-.093.093H194l-.093.093h-.093l-.093.093h-.185a.341.341,0,0,1-.278.093h-.185l.278.463h-.371l-.371.093c-.093,0-.093,0-.093.093h-.278v.463c0,.185-.093.278-.093.371v.371c0,.093-.093.093-.093.185v.278c0,.093-.093.185-.093.278s-.093.185-.093.371v.371a.091.091,0,0,1-.093.093v.185l-.093.093v.093c0,.093,0,.185-.093.185v.834l-.093-.185v-.185c0,.093,0,.093-.093.185v.185h-.093v.556a.34.34,0,0,1-.093.278v-.742h-.185l-.093.093h-.093c-.093.093-.093.093-.093.185s-.093.093-.093.185v.093h-.278a.091.091,0,0,1-.093.093H190.2v.556l-.093.371-.093.093h-.093v.093h0v.185l-.093.093a.091.091,0,0,1-.093.093h-.093a398.188,398.188,0,0,1-.185.185V35.7h-.093v.093h-.093V35.7h-.185l-.093.093h0V35.7L188.9,35.6v-.093s0-.093-.093,0h-.185v-.185a.091.091,0,0,1-.093-.093.406.406,0,0,1-.093-.278v-.371h-.093v-.742a.091.091,0,0,0-.093-.093v-.093h-.093a.324.324,0,0,0-.093.185l-.093.278h-.185a.091.091,0,0,0-.093-.093v-.093h0l-.093-.093a.091.091,0,0,0-.093-.093v-.278h-.093a.341.341,0,0,0-.093-.278V32.73h-.093V31.8a.34.34,0,0,1,.093-.278v-.463h0v-1.3c0-.093,0-.185.093-.185v-.093h-.278v.093h0v-.185h0V29.3h-.093a.091.091,0,0,1-.093-.093h-.093v-.093h.093l.093-.093h-.093V28.93h-.093l-.185-.093h-.185v-.093l-.093-.093h-.649a.091.091,0,0,0-.093-.093h-.093v-.093h-.185v-.093h-.093v-.185h-.093V28.1h0V27.91H185.1a.091.091,0,0,1,.093-.093v-.185h.185a.091.091,0,0,0,.093-.093h.093l.093-.093h.093c0-.093,0-.093.093-.093v-.093h-.093a.324.324,0,0,0-.185-.093V26.056h-.093l.093-.093h0l.093-.093.093-.093a.091.091,0,0,0,.093-.093h-.093l.185-.185h.093v-.093c0-.093,0-.093.093-.093l.093-.093h.093l.093-.093h.278l.093-.093a.341.341,0,0,0,.278-.093c.093,0,.185,0,.185-.093h.093l.556-.185a.34.34,0,0,1,.278-.093.341.341,0,0,0,.278-.093v-.093h-.093a.091.091,0,0,1,.093-.093V23a.34.34,0,0,1,.093-.278v-.371c0-.093.093-.185.093-.278v-.278l.093-.463v-.371l.093-.371v-.278a.34.34,0,0,1,.093-.278v-.371l.093-.371a.7.7,0,0,0,.093-.371,1.008,1.008,0,0,0,.093-.463.458.458,0,0,0,.093-.278v-.463c0-.093,0-.093.093-.093v-.556a.324.324,0,0,0,.093-.185l.093-.093c0-.093.093-.185.093-.278a.341.341,0,0,1,.093-.278v-.185l.093-.278.093-.278a.34.34,0,0,1,.093-.278v-.185c0-.093,0-.185.093-.185l.093-.463v-.185a.34.34,0,0,0,.093-.278c.093-.093.093-.093.093-.185v-.185l.093-.371c0-.093,0-.093.093-.185a1.462,1.462,0,0,1,.093-.371.7.7,0,0,0,.093-.371l.093-.278c0-.093.093-.185.093-.278v-.278a.341.341,0,0,0,.093-.278c.093-.185.093-.371.185-.556l.093-.371.185-.834a.34.34,0,0,1,.093-.278l.185-.371.093-.278V8.352a.287.287,0,0,1,.093-.185c.093,0,.093-.093.093-.185l.093-.093a.341.341,0,0,1,.093-.278l.185-.371a.341.341,0,0,0,.093-.278l.278-.463.093-.093.093-.371c0-.093.093-.093.093-.185s.093-.093.093-.185,0-.093.093-.185h.093c0-.093,0-.093.093-.093.093-.185.093-.371.185-.463l.093-.093V4.737L194.091,4l.185-.185c.093-.093.093-.093.093-.185l.093-.093h0V3.439l.093-.093a.287.287,0,0,1,.093-.185l.093-.093.278-.278.278-.278c0-.093,0-.093.093-.093l.093-.093.185-.093.185-.093V2.049a.717.717,0,0,0,.278-.093l.371-.185h.556l.649-.185.742-.185h.742a3.639,3.639,0,0,1,1.3.278l.278.093h.185l.093.093h.185c.093.093.093.093.185.093l.834.556h.093l.093.093.185.093.371.278A14.261,14.261,0,0,1,204.1,4.181c.093.093.185.093.185.185l.093.093.278.371.371.556.093.278c.093.093.093.185.185.278l.093.278h0l.093.093V6.5l.093.371.093.278h0a.091.091,0,0,0,.093.093v.093c.093.185.093.278.185.463s.093.278.185.463a.341.341,0,0,1,.093.278.091.091,0,0,1,.093.093.341.341,0,0,1,.093.278l.093.093a.324.324,0,0,1,.093.185v.093l.093.278.371,1.668.278,1.668c0,.093.093.185.093.371v.093h0v.185a1.631,1.631,0,0,1,.093.556v.463c0,.093.093.185.093.371a.7.7,0,0,1,.093.371l.093.371v.371c0,.093.093.185.093.278v2.039c0,.278,0,.371-.093.463v.834a2.3,2.3,0,0,1,.093.742h.834v-.093h1.205a.091.091,0,0,0,.093.093h.371l.093.093h0v.093h.093v-.093h0v.093h.093c-.093-.093-.093-.093-.093,0h-.278l-.093.093v.093l-.093.093h-.093v.093h-.278v.093h.093v.093h-.093v.278h-.278v.093h3.059l.093.093h.093V21.7h.093a.091.091,0,0,0,.093.093v.093h-.093c0,.093,0,.093-.093,0h-.093a.091.091,0,0,0,.093.093h0v.093l.092.185ZM202.526,20.4a.34.34,0,0,0-.093-.278v-.185a.091.091,0,0,1-.093-.093v-.093a.091.091,0,0,0-.093-.093v-.649a.341.341,0,0,0-.093-.278v-.185h-.093V17.9c0-.093,0-.185-.093-.185v-.093a.091.091,0,0,0-.093-.093h-.093v.093h0l-.093-.371v-.742l-.093-.093c0-.185,0-.278-.093-.371V14.933a.091.091,0,0,0-.093-.093v-.093l-.093-.278a.341.341,0,0,0-.093-.278c0-.093-.093-.185-.093-.278v-.278l-.093-.185v-.278c0-.093-.093-.185-.093-.278l-.093-.093v-.649h0l-.371-1.761a4.847,4.847,0,0,0-.556-1.483l-.093-.185-.185-.278-.093-.093V8.259a2.021,2.021,0,0,0-.371-.463h0a.341.341,0,0,0-.093.278L199,8.167c0,.093-.093.185-.093.278s-.093.185-.093.278,0,.093-.093.093V9l-.093.093a.341.341,0,0,1-.093.278l-.185.556-.185.556c0,.093-.093.093-.093.185a.324.324,0,0,1-.093.185v.093c0,.093-.093.278-.093.371s-.093.185-.093.278c-.093.093-.093.278-.185.556l-.093.093a.091.091,0,0,1-.093.093c0,.093-.093.278-.093.371s-.093.185-.093.278a.34.34,0,0,1-.093.278c0,.093,0,.093-.093.185a.324.324,0,0,0-.093.185v.093l-.185.463-.093.463v.093l-.093.463V15.3l-.093.093c0,.093-.093.093-.093.185s0,.185-.093.185l-.093.093a.324.324,0,0,0-.093.185v.185a.091.091,0,0,1-.093.093c0,.093,0,.093-.093.185a.324.324,0,0,1-.093.185v.093a.287.287,0,0,1-.093.185v.371a.341.341,0,0,0-.093.278v.093a4.205,4.205,0,0,0-.185.742l-.093.185v.185a.091.091,0,0,1-.093.093V19.2l-.093.093v.093c-.093.093-.093.093-.093.278v.093l-.278.927v.185l-.093.185c0,.093,0,.185-.093.185v.185h.278l.093.093.093-.093h1.669c.093,0,.093,0,.093-.093h.649l.093-.093a1.008,1.008,0,0,0,.463-.093h.185l.927-.185h.093l.093-.093h.371a.091.091,0,0,0,.093-.093h.463l.371-.093h.463l.556-.185a1.81,1.81,0,0,0,.649-.093Z" transform="translate(-108.721 -0.288)" fill="#131111"/>
      <path id="Path_436" data-name="Path 436" d="M233.161,5.7h0l-.093.093-.093.093v.093c-.093.093-.093.093-.093,0v.093h-.093V5.976H232.7l-.093.093h-.742a.091.091,0,0,1-.093.093h-.278v.093h-.185a.091.091,0,0,0-.093.093h-.093v.185h-.093v.185a.091.091,0,0,0-.093.093h0l-.093.093.093.093h-2.781a.091.091,0,0,0-.093-.093h-.278L227.692,7h0l.093.093h-.278l-.093.093h-.463a.091.091,0,0,1-.093.093h-.278c-.093.093-.093.093-.093,0h0a.091.091,0,0,0-.093.093h-.834v.185h-.371l-.093.093h-.463v.093h-2.6v.371a.324.324,0,0,0-.093.185V9.22c0,.093,0,.185-.093.185v2.039c0,.093,0,.185-.093.185v.649c0,.093,0,.093-.093.185v.556c0,.093-.093.185-.093.278v.556l-.093.093c0,.093,0,.185-.093.185V14.5c0,.093,0,.093-.093.093v.093l-.093.093-.093.093v.185a.324.324,0,0,0-.093.185c0,.093,0,.093-.093.093v.371c0,.093,0,.185-.093.185.093.093.093.093,0,.093v.371a.34.34,0,0,1-.093.278v.185h-.093v.463h-.093v.093a.091.091,0,0,1-.093.093.091.091,0,0,0-.093.093V18.3c0,.093,0,.093-.093.093v.185l-.093,1.205v.371h-.093v.649c0,.093,0,.093-.093.093v.093h0v.093h-.093a.694.694,0,0,1-.093.463v2.41l-.093.093V24.7a.341.341,0,0,1-.093.278V26l-.093.185v.093c0,.093,0,.093-.093.093,0,.093,0,.185-.093.185V29.52h0v1.668l.093.093v.278h-.093l.093.093V32.3h0v.278l-.093.093h-.185v.093h-.185l-.093-.093v.185l-.093-.093v-.185H218.7v-.185h-.185V32.3h-.093a.091.091,0,0,0-.093-.093h-.185V31.93h-.093v.185h-.093v-.093l-.093-.093h.278v.093h-.093v-.278h-.093v.371l.093.463v.093l.093.093v.278a.324.324,0,0,1,.093.185h0a.324.324,0,0,1,.093.185l.093.278h.093v.093c0,.093,0,.093.093.093v.278h0v.278l.093.093v.185a.091.091,0,0,0,.093.093V34.9h.093v.093h.093c0,.093,0,.093.093.093a.091.091,0,0,0,.093.093v.185h0l.093.093v.371h-.093a.091.091,0,0,0,.093.093h-.185l-.093-.093a.091.091,0,0,0-.093-.093h0v.093h-.093a.091.091,0,0,0,.093.093v.093h-.093l-.093-.093h-.185v-.093l-.093-.093h0v-.093h-.278a.091.091,0,0,1-.093-.093h0l-.093-.093h-.093v-.185l-.093-.185-.185-.185L217.5,34.8h-.278l-.093-.093h0v-.093c0-.093,0-.093-.093-.093a.091.091,0,0,0-.093-.093l-.093-.093h0v-.093h-.093l-.093-.278a.091.091,0,0,0-.093-.093h-.093v-.185l-.093-.093h-.278a.091.091,0,0,0-.093-.093l-.093-.093-.278-.185v.093h-.093l-.093-.185v-.093l-.093-.093c0-.093,0-.093-.093-.093v-.371c0-.093,0-.093-.093-.093v-.185a.324.324,0,0,1-.093-.185v-.185h0V31.56l-.093-.093v-.278L214.9,31.1V29.52c-.093,0-.093-.093,0-.093v-.093l-.093-.185v-.371h-.185v0h0l-.093-.093v-.093h0c-.093-.093-.093-.093-.093-.185h-.093v-.371h0v-.185a.091.091,0,0,0-.093-.093c0-.093,0-.093-.093-.093v-.742h0v-.093h.278v.093h0l-.093-.093V26.74l.093-.093v-.278c0-.093,0-.093-.093-.093h0l.093-.093v-.278a.091.091,0,0,1-.093-.093v-.185c-.093,0-.093,0-.093.093h-.093v-.834l-.093-.093v-.185h0v-.371h0V22.383c0-.185.093-.371.093-.556v-.556l.093-.278v-.278l.093-.556V18.675c0-.093.093-.185.093-.278v-.371l.093-.093v-.742l.093-.093v-.371l.093-.093v-.278c.093-.093.093-.093,0-.093V14.689c0-.185,0-.278.093-.371v-.927h0c0-.185,0-.278.093-.371V12a1.175,1.175,0,0,0,.093-.556V10.8h.093V10.7c0-.093,0-.093.093-.093v-.278h0v-.185l.093-.093V9.128h-.834a.091.091,0,0,0-.093.093h-.834a1.008,1.008,0,0,1-.464.093h-1.112a.091.091,0,0,0-.093-.093h-.834l-.093-.093h-.278V9.035l-.093.093h-.093l-.278.093h-.649V9.128h-.371V9.22h-.093V9.128h.093l.093-.093h-.093V8.85h-.371l.093-.093h.185l.093-.093V8.479l-.371-.093h0l-.278-.093h0V8.108h-.093V8.015h-.093V7.83h-.371a.091.091,0,0,0-.093-.093h-.185V7.645h-.185V7.459h-.093V7.089h0V6.9h0V6.718c0-.093,0-.093.093-.093h.093l.093-.093h0l.093-.093h.185V6.254a.091.091,0,0,1,.093-.093h-.093a.091.091,0,0,0-.093-.093h-.093V5.7h0V5.605h.093c0-.093,0-.093.093-.093,0-.093,0-.093.093-.093h0V5.235h.278l.093-.093.093-.093h0a.091.091,0,0,1,.093-.093h.371l.093-.093h.093l-.278-.185h.278c.278-.093.649-.185,1.02-.278h.185a.091.091,0,0,1,.093-.093h.093a.091.091,0,0,0,.093-.093h0V4.03h.093V3.937h.371l.093-.093h.278a.091.091,0,0,1,.093-.093h.185l.093-.093h1.205c.093,0,.093,0,.093-.093h.371c.093,0,.093,0,.093-.093h.742a.091.091,0,0,0,.093-.093h.278l.093-.093h.278a.091.091,0,0,0,.093-.093h.371c.093,0,.185,0,.185-.093h2.41V1.99h0V1.712h.093a.091.091,0,0,0,.093.093h0V1.9l.093-.185h.185c0-.093,0-.093.093-.093,0-.093,0-.093.093-.093h0v0c0,.093,0,.093.093.093h0v.185h.278a.091.091,0,0,0,.093-.093h.371l.093-.093h.093V1.249l.093-.185A.091.091,0,0,0,220,.971h.093V.878a.091.091,0,0,0,.093-.093h.463V.693h.464v0l.093.093h.185V.971h.093v.185h0v.093c.093,0,.093,0,.093.093V1.62l.093.185h.093a.091.091,0,0,0,.093-.093l.093-.093h.278a.091.091,0,0,0,.093.093h0v.093l.093.093h3.059V1.99h.556c.093,0,.093,0,.185.093h2.41l.093.093h.742v.093h.093v0h.649l.093.093h.371a.091.091,0,0,0,.093.093h.464l.093.093.093.093h-.093v.093h0a.091.091,0,0,1-.093.093h0a.091.091,0,0,1,.093.093h-.371a.091.091,0,0,1-.093.093V3.1h-.185V3.2h-.093a.091.091,0,0,0,.093.093h-.093v.093h-.093v.093h1.668c.093,0,.093,0,.093.093h.371c.093,0,.093,0,.093.093l.093.093.093.093h0l.093.093h0l.093.093h.093v.093l.093.093h0c-.093,1.39-.093,1.483-.093,1.483Z" transform="translate(-110.343 -0.229)" fill="#131111"/>
      <path id="Path_437" data-name="Path 437" d="M251.523,22.263h-.185c-.093,0-.093,0-.093.093h-.093l-.093.093h-.093l-.093.093H250.6l-.093.093h-.649l-.093.093h-.093c-.093,0-.093,0-.185.093a.091.091,0,0,0-.093.093h0A.091.091,0,0,0,249.3,23h0v.185l-.093.093a.287.287,0,0,0-.093.185l.093.093h0l-.093.093h-.464c-.093,0-.093,0-.093.093h-1.112l-.649.093a.091.091,0,0,1-.093-.093v.093h0v8.342h-.093v.278h-.093v-.371a.091.091,0,0,0-.093.093v-.649h0V31.44c0-.093,0-.093-.093-.093h-.093v-.371h0v0h0v-.742h-.093v.371h-.093v-.371h-.093v.093h0v.278a.091.091,0,0,0-.093-.093v-.834l-.093-.093v.742l.093,1.02v6.859h0V38.3h0v.463a.091.091,0,0,1-.093-.093v.278c0-.093-.093-.093-.093-.185v-.649l-.093-.093v.093l-.093.093V38.3h0v-.371l-.093-.093v-.742l-.185-.278h0v-.185a.557.557,0,0,1-.093-.371V35.7l-.093-.463a.324.324,0,0,1-.093-.185h0v-.371h0v-.463c0-.093,0-.093-.093-.093v-.093l-.093-.185v-.093a.557.557,0,0,0-.093-.371v-.093h-.093V32.83h0v-.093h0a.091.091,0,0,1-.093-.093c0-.093,0-.093-.093-.093v-.185h0a.324.324,0,0,0-.093-.185l-.093-.093h0v0a.406.406,0,0,1-.093-.278V31.44a.324.324,0,0,1-.093-.185v-1.02a.557.557,0,0,0-.093-.371v-1.02l-.093-1.02v-.463l-.093-1.02H242.9l-1.576.371h-.278c-.093.093-.185.093-.371.093l-.093.093h0a1.008,1.008,0,0,0-.463.093h-.185c-.093,0-.093,0-.093.093h-.556a.324.324,0,0,1-.185.093h-.093v.093h-.371a.091.091,0,0,1-.093.093h-.278c-.093,0-.093,0-.093.093H237.9a.091.091,0,0,0-.093.093h-.371l-.278.093h-2.039l-.093.093h-.185c-.093,0-.185,0-.185.093h-.093l-.278.093H234.1a.7.7,0,0,1-.371.093V28.1h-.649l-.185.093H232.8l-.093.093h-.185a.34.34,0,0,1-.278.093h-.093l-.093.093h-.371l-.278.093c-.093,0-.093,0-.093.093h-.185v.463c0,.185-.093.278-.093.371v.371c0,.093-.093.093-.093.185v.556c0,.093-.093.185-.093.371v.742a.091.091,0,0,0-.093.093v1.02l-.093-.185v.185h-.093v.093h-1.112l-.093.093h0c-.093.093-.093.093-.093.185s-.093.093-.093.185v.093H229v.093h-.093v.556l-.093.371v.093h0v.093h0v.185l-.093.093v.093h-.093v.093a.091.091,0,0,1-.093.093v.093h-.093v.093h-.093v-.093H227.7v.093h0v-.093l-.093-.093v-.093s0-.093-.093,0h0l-.093-.093v-.834h-.093v-.742a.091.091,0,0,0-.093-.093l-.093-.093h0a.324.324,0,0,0-.093.185l-.093.278h-.185a.091.091,0,0,0-.093-.093v-.093h0V33.2l-.093-.093h0v-.742H226.5V31.44a.341.341,0,0,1,.093-.278V30.7h0v-.834a4.015,4.015,0,0,0,.093-.463v-.278H226.5v.093h0V29.03h0v-.093H226.4a.091.091,0,0,1-.093-.093h-.185v-.093h0l.093-.093h0v-.093h-.093l-.185-.093h-.093v-.093l-.093-.093h-1.2V28.2h-.093V28.1h-.093V28.01h0v-.185h-.371v-.093h0v-.185H223.9a.091.091,0,0,1,.093-.093v-.185h.093v-.093h.093v-.093h.093c0-.093,0-.093.093-.093V26.9h-.093l-.093-.093v-.742h0c.093-.093.093-.093,0-.093h0l.093-.093v-.093a.091.091,0,0,0,.093-.093h-.093l.185-.185h0v-.093c0-.093,0-.093.093-.093v-.093h.093l.093-.093h.278l.093-.093c.093,0,.185,0,.185-.093.093,0,.185,0,.185-.093h.093l.556-.185a.341.341,0,0,1,.278-.093.341.341,0,0,0,.278-.093V24.4h-.093a.091.091,0,0,1,.093-.093V22.078c0-.093,0-.093.093-.185V21.8l.093-.463v-.371l.093-.371v-.278a.34.34,0,0,1,.093-.278v-.371l.093-.371a.7.7,0,0,0,.093-.371,1.008,1.008,0,0,0,.093-.463.458.458,0,0,0,.093-.278c0-.093.093-.093.093-.278v-.834a.324.324,0,0,0,.093-.185v-.371a.34.34,0,0,1,.093-.278v-.185l.093-.278.093-.278a.341.341,0,0,1,.093-.278v-.185c0-.093,0-.185.093-.185l.093-.463V14.2a.341.341,0,0,0,.093-.278c.093-.093.093-.093.093-.185V13.55l.093-.371v-.185a1.462,1.462,0,0,1,.093-.371.7.7,0,0,0,.093-.371l.093-.278c0-.093.093-.185.093-.278v-.278a.341.341,0,0,0,.093-.278c.093-.185.093-.371.185-.556l.093-.371.278-.742a.34.34,0,0,1,.093-.278l.093-.371.093-.278V8.452a.287.287,0,0,1,.093-.185c.093,0,.093-.093.093-.185l.093-.093a.341.341,0,0,1,.093-.278l.093-.371a.34.34,0,0,0,.093-.278l.185-.463.093-.093.093-.371c0-.093.093-.093.093-.185s.093-.093.093-.185,0-.093.093-.185h.093V5.486c.093-.185.093-.371.185-.463l.093-.093V4.837l.371-.742a.324.324,0,0,0,.093-.185c.093-.093.093-.093.093-.185l.093-.093h0V3.539l.093-.093a.287.287,0,0,1,.093-.185l.093-.093.278-.278.278-.278c0-.093,0-.093.093-.093l.093-.093.093-.093.185-.093.093-.093a.717.717,0,0,0,.278-.093L234,1.871h.556l.649-.185.649-.185h.741a3.639,3.639,0,0,1,1.3.278l.278.093h.093l.093.093h.185c.093.093.093.093.185.093l.834.556h.093l.093.093.185.093.371.278a14.269,14.269,0,0,1,1.112,1.205c.093.093.185.093.185.185l.093.093.278.371.371.556.093.278c.093.093.093.185.185.278l.093.278h0l.093.093V6.6l.093.371.093.278h0a.091.091,0,0,0,.093.093v.093c.093.185.093.278.185.463s.093.278.185.463a.34.34,0,0,1,.093.278V8.73a.34.34,0,0,1,.093.278v.371l.093.278.371,1.668.278,1.668c0,.093.093.185.093.371v.093h0v.185a1.632,1.632,0,0,1,.093.556v.463c0,.093.093.185.093.371.093.185.093.278,0,.371l.093.371v2.688c0,.278,0,.371-.093.463v.834a2.3,2.3,0,0,1,.093.742h.834v-.093H246.8a.091.091,0,0,0,.093.093h.371l.093.093h0v.093h.093V20.5h0v.093h.093c-.093-.093-.093-.093-.093,0h-.278l-.093.093v.093l-.093.093h-.093v.093h-.278v.093h.093v.093h-.093v.278h1.3v.093h3.059l.093.093h.093v.093h.093a.091.091,0,0,0,.093.093v.093h-.093c0,.093,0,.093-.093,0h-.093a.091.091,0,0,0,.093.093h0v.093l.371.185Zm-10.289-1.854v-.556c0-.093,0-.093-.093-.093v-.742a.341.341,0,0,0-.093-.278v-.185h0V18c0-.093,0-.093-.093-.093v-.371h-.093v.093h0l-.093-.371v-.742l-.093-.093v-.556a.091.091,0,0,1-.093-.093v-.834a.091.091,0,0,0-.093-.093v-.093l-.093-.278v-.556a.406.406,0,0,1-.093-.278l-.093-.185v-.278c0-.093-.093-.185-.093-.278l-.093-.093v-.556l-.093-.093h.093l-.464-1.761a4.844,4.844,0,0,0-.556-1.483l-.093-.185-.556-.278-.093-.093V8.267A2.025,2.025,0,0,0,237.9,7.8h0a.34.34,0,0,0-.093.278l-.093.093c0,.093-.093.185-.093.278s-.093.185-.093.278v.278l-.093.093a.34.34,0,0,1-.093.278l-.185.556-.278.556c0,.093-.093.093-.093.185a.324.324,0,0,1-.093.185v.093c0,.093-.093.278-.093.371s-.093.185-.093.278c-.093.093-.093.278-.185.556l-.093.093v.093c0,.093-.093.278-.093.371s-.093.185-.093.278a.341.341,0,0,1-.093.278c0,.093,0,.093-.093.185v.278l-.185.463-.093.463v.093l-.185.463v.371c0,.093,0,.185-.093.185v.093a.324.324,0,0,0-.093.185v.185a.091.091,0,0,1-.093.093v.463a.287.287,0,0,1-.093.185v.371a.341.341,0,0,0-.093.278v.093a4.2,4.2,0,0,0-.185.742l-.093.185v.185a.091.091,0,0,1-.093.093v.463c-.093.093-.093.093-.093.278v.093l-.278.927v.185l-.093.185v.371h.278v.093a.324.324,0,0,1,.185-.093h1.39c.093,0,.093,0,.093-.093h.556l.093-.093a.7.7,0,0,0,.371-.093h.185l.927-.185h.093l.093-.093h.371a.091.091,0,0,0,.093-.093h.464l.278-.093h.371l.649-.093a1.809,1.809,0,0,0,.649-.093v-.093Z" transform="translate(-111.556 -0.295)" fill="#131111"/>
    </g>
    <path id="Path_438" data-name="Path 438" d="M42.546,12.528a4.833,4.833,0,0,0-2.781,1.39,33.084,33.084,0,0,0-3.615,3.615c-1.3,1.483-2.6,3.059-3.986,4.913-1.39,1.761-2.688,3.522-3.986,5.284s-2.5,3.43-3.615,4.913c-1.112,1.576-2.039,2.781-2.781,3.708A9.441,9.441,0,0,1,19,34.4a7.868,7.868,0,0,1-1.668-3.152,46.6,46.6,0,0,1,1.02-4.635q.7-2.364,1.668-5.005c.742-1.761,1.576-3.522,2.6-5.469a69.291,69.291,0,0,1,3.8-6.025A5.406,5.406,0,0,0,23.451,11.6a36.806,36.806,0,0,0-4.079,3.8,66.574,66.574,0,0,0-4.449,5.284c-1.576,1.947-2.966,3.893-4.357,5.747-1.761,2.5-3.244,4.727-4.449,6.581a13.883,13.883,0,0,1-2.6,3.337,7.585,7.585,0,0,1-2.6-2.966A19.876,19.876,0,0,1,0,29.955,32.79,32.79,0,0,1,.556,25.6a41.047,41.047,0,0,1,1.3-5.376A67.15,67.15,0,0,1,6.118,9.747c1.761-3.43,3.43-6.674,5.1-9.547a10.509,10.509,0,0,1,3.615,1.39,17.374,17.374,0,0,1,3.43,2.781A21.453,21.453,0,0,1,16.036,9.1c-1.02,1.668-2.039,3.43-3.152,5.284s-2.132,3.708-3.059,5.654a20.069,20.069,0,0,0-1.761,5.84c1.39-1.947,2.966-4.171,4.82-6.674a90,90,0,0,1,5.747-7.045A47.253,47.253,0,0,1,24.471,6.5a8.691,8.691,0,0,1,5.191-2.317,6.924,6.924,0,0,1,1.854.278,11.048,11.048,0,0,1,1.854.742c.556.278,1.02.556,1.483.834a2.07,2.07,0,0,1,.649.649,22.96,22.96,0,0,1-1.668,3.893c-.927,1.668-1.854,3.43-2.873,5.284s-1.947,3.615-2.781,5.284A13.011,13.011,0,0,0,26.7,25.227c2.317-3.244,4.542-6.118,6.674-8.806a77.191,77.191,0,0,1,5.84-6.767,32.9,32.9,0,0,1,5.1-4.357,8.19,8.19,0,0,1,4.449-1.483,5.586,5.586,0,0,1,2.688.742,3.915,3.915,0,0,1,1.761,2.225,34.357,34.357,0,0,1-2.132,5.191c-1.02,2.039-1.947,4.171-2.966,6.4s-1.947,4.449-2.688,6.581a16.039,16.039,0,0,0-1.205,5.84,2.928,2.928,0,0,0,.463,1.947,1.762,1.762,0,0,0,1.205.463,3.636,3.636,0,0,0,1.668-.371,3.843,3.843,0,0,1,1.112-.371.945.945,0,0,1,.463.742,2.567,2.567,0,0,1,.093.834,20.421,20.421,0,0,1-2.966,1.947,8.1,8.1,0,0,1-3.43.742,6.618,6.618,0,0,1-2.873-.556A5.107,5.107,0,0,1,38.1,34.589a6.55,6.55,0,0,1-1.02-2.317,12.843,12.843,0,0,1-.278-2.781,17.9,17.9,0,0,1,.649-4.913,38.933,38.933,0,0,1,1.576-4.635,23.748,23.748,0,0,1,1.947-4.079C41.527,14.66,42.083,13.548,42.546,12.528Z" transform="translate(519.244 550.8)" fill="#b70000"/>
    <path id="Path_439" data-name="Path 439" d="M86.57,20.6c-1.112,3.077-2.225,5.911-3.337,8.421a76.449,76.449,0,0,1-3.522,6.963,59.215,59.215,0,0,1-4.079,5.911,65.57,65.57,0,0,1-4.727,5.1,26.672,26.672,0,0,1-6.859,4.615A17.161,17.161,0,0,1,57,53.229a18.194,18.194,0,0,1-3.615-.324,19.445,19.445,0,0,1-3.337-.972,20.739,20.739,0,0,1-2.781-1.376,4.211,4.211,0,0,1-1.668-1.7,1.58,1.58,0,0,1,1.02-1.3A7.6,7.6,0,0,0,48.1,48.614a7.9,7.9,0,0,0,1.112.648,5.77,5.77,0,0,0,1.112.324,7.01,7.01,0,0,0,1.39.081,17.05,17.05,0,0,0,8.064-2.105A27.224,27.224,0,0,0,67.2,41.57a47.958,47.958,0,0,0,6.4-9.392A69.2,69.2,0,0,0,78.506,19.87c-.649.81-1.39,1.862-2.317,3.077s-1.947,2.429-3.059,3.644a30.912,30.912,0,0,1-3.43,3.239,10.042,10.042,0,0,1-3.43,1.943,8.66,8.66,0,0,1-2.41-.324,12.21,12.21,0,0,1-2.41-.972A8.523,8.523,0,0,1,59.5,28.939a4.488,4.488,0,0,1-1.112-2.024A22.728,22.728,0,0,1,58.577,24c.093-.729.278-1.538.463-2.429a54.076,54.076,0,0,1,4.913-11.416,40.735,40.735,0,0,1,3.8-5.506A19.508,19.508,0,0,1,72.018.6,10.981,10.981,0,0,1,73.5.681,13.438,13.438,0,0,1,75.262,1c.649.162,1.205.4,1.761.567a6.067,6.067,0,0,1,1.483.891,30.325,30.325,0,0,0-3.43,4.21,64.748,64.748,0,0,0-5.932,10.364,10.216,10.216,0,0,0-.834,2.024c-.371.891-.649,1.781-1.02,2.753-.278.972-.556,1.943-.834,2.834a7.8,7.8,0,0,0-.371,2.186,1.452,1.452,0,0,0,.185.729.839.839,0,0,0,.371.4,8.456,8.456,0,0,0,3.43-1.862,29.683,29.683,0,0,0,4.913-5.182c1.112-1.538,2.225-3,3.152-4.534.927-1.457,1.947-3,2.873-4.534s1.947-3.077,2.966-4.7,2.132-3.239,3.244-4.939a19,19,0,0,1,2.039.162c.742.162,1.39.324,2.132.486a8.383,8.383,0,0,1,1.761.648,5.777,5.777,0,0,1,1.112.729Q92.039,8.494,90.093,12.5A81.375,81.375,0,0,0,86.57,20.6Z" transform="translate(513.301 550.771)" fill="#b70000"/>
  </g>
</svg>